<?xml version="1.0" encoding="UTF-8" standalone="no" ?>
<!DOCTYPE svg PUBLIC "-//W3C//DTD SVG 1.1//EN" "http://www.w3.org/Graphics/SVG/1.1/DTD/svg11.dtd">
<svg xmlns="http://www.w3.org/2000/svg" xmlns:xlink="http://www.w3.org/1999/xlink" version="1.1" width="1080" height="1080" viewBox="0 0 1080 1080" xml:space="preserve">
<desc>Created with Fabric.js 5.2.4</desc>
<defs>
</defs>
<rect x="0" y="0" width="100%" height="100%" fill="transparent"></rect>
<g transform="matrix(1 0 0 1 540 540)" id="79da35db-add1-4f8c-b969-a5ffa7dec037"  >
</g>
<g transform="matrix(1 0 0 1 540 540)" id="3b12bfd7-248c-43a3-a4b8-896589a808b3"  >
<rect style="stroke: none; stroke-width: 1; stroke-dasharray: none; stroke-linecap: butt; stroke-dashoffset: 0; stroke-linejoin: miter; stroke-miterlimit: 4; fill: rgb(255,255,255); fill-rule: nonzero; opacity: 1; visibility: hidden;" vector-effect="non-scaling-stroke"  x="-540" y="-540" rx="0" ry="0" width="1080" height="1080" />
</g>
<g transform="matrix(1 0 0 1 448.56 467.54)"  >
<rect style="stroke: none; stroke-width: 1; stroke-dasharray: none; stroke-linecap: butt; stroke-dashoffset: 0; stroke-linejoin: miter; stroke-miterlimit: 4; fill: rgb(255,255,255); fill-rule: nonzero; opacity: 1; visibility: hidden;" vector-effect="non-scaling-stroke"  x="-540" y="-540" rx="0" ry="0" width="1080" height="1080" />
</g>
<g transform="matrix(16.55 0 0 16.55 494.29 326.24)"  >
<path style="stroke: none; stroke-width: 0.26; stroke-dasharray: none; stroke-linecap: butt; stroke-dashoffset: 0; stroke-linejoin: miter; stroke-miterlimit: 4; fill: rgb(43,42,41); fill-rule: nonzero; opacity: 1;" vector-effect="non-scaling-stroke"  transform=" translate(-159.53, -96.7)" d="M 139.7931 106.08441 C 140.40177 99.56518200000001 143.15469000000002 93.969412 147.47933 90.460862 C 149.57131 88.763642 153.24567000000002 86.994662 156.48764 86.123902 C 158.74849 85.516662 159.64924 85.416862 162.95104 85.407752 C 166.47822 85.397752 166.95814000000001 85.456452 168.90417 86.13310200000001 C 173.28701999999998 87.65696200000001 176.65213 89.93602200000001 177.75530999999998 92.12764200000001 C 179.59851999999998 95.78944200000001 179.8439 98.58848200000001 178.4493 100.04412 C 177.63384 100.89529 176.18923999999998 101.50714 174.15782 101.86177 L 172.79689 102.09934000000001 L 171.89146 100.75152000000001 C 170.73686999999998 99.03279200000001 168.62836 97.55722200000001 166.26381999999998 96.81319200000002 C 163.74304999999998 96.02000200000002 158.77781 96.03830200000002 155.73220999999998 96.85199200000001 C 153.05426999999997 97.567462 149.70904 99.14736200000002 147.20113999999998 100.88107000000001 C 145.34369999999998 102.16512 140.19687 107.22281000000001 140.19687 107.76403 C 140.19687 107.89526000000001 140.06573 108.00263000000001 139.90544 108.00263000000001 C 139.70356999999998 108.00263000000001 139.66905 107.41306000000002 139.7931 106.08440000000002 z" stroke-linecap="round" />
</g>
<g transform="matrix(16.55 0 0 16.55 536.24 533.31)"  >
<path style="stroke: none; stroke-width: 0.26; stroke-dasharray: none; stroke-linecap: butt; stroke-dashoffset: 0; stroke-linejoin: miter; stroke-miterlimit: 4; fill: rgb(191,39,47); fill-rule: nonzero; opacity: 1;" vector-effect="non-scaling-stroke"  transform=" translate(-162.07, -109.22)" d="M 143.03076 124.20837 C 139.98343 120.02442 139.2483 115.43826 141.03376999999998 111.74997 C 141.80462999999997 110.15759 144.32787999999996 107.53003000000001 146.12559999999996 106.44764 C 149.96086999999997 104.13847000000001 153.13453999999996 103.57886 164.37797999999995 103.22923 C 172.87127999999996 102.96512 175.45673999999994 102.6755 177.35269999999994 101.77581 C 178.45771999999994 101.25144 179.59458999999995 100.16216 179.91547999999995 99.320322 C 180.29883999999996 98.31456200000001 180.16523999999995 96.06134200000001 179.63036999999994 94.511722 C 179.35465999999994 93.712912 179.16578999999993 93.02261200000001 179.21066999999994 92.977732 C 179.25556999999995 92.932832 179.84150999999994 93.586422 180.51278999999994 94.43011200000001 C 183.00428999999994 97.56156200000001 184.36893999999995 101.45274 184.00294999999994 104.38201000000001 C 183.59075999999993 107.68106 180.82841999999994 111.44274000000001 177.69094999999993 112.97752000000001 C 174.39800999999994 114.58835000000002 171.65538999999993 114.95496000000001 159.51145999999994 115.40763000000001 C 152.22361999999995 115.67928 150.28073999999995 115.95517000000001 147.95434999999995 117.04870000000001 C 145.17921999999996 118.35316000000002 143.70172999999994 120.94148000000001 143.95929999999996 124.04738 C 144.02399999999994 124.82715 144.04739999999995 125.46514 144.01149999999996 125.46514 C 143.97549999999995 125.46514 143.53420999999994 124.8996 143.03075999999996 124.20837 z" stroke-linecap="round" />
</g>
<g transform="matrix(16.55 0 0 16.55 581.64 746.12)"  >
<path style="stroke: none; stroke-width: 0.26; stroke-dasharray: none; stroke-linecap: butt; stroke-dashoffset: 0; stroke-linejoin: miter; stroke-miterlimit: 4; fill: rgb(43,42,41); fill-rule: nonzero; opacity: 1;" vector-effect="non-scaling-stroke"  transform=" translate(-164.81, -122.08)" d="M 156.99792 133.51193 C 153.3416 132.6961 148.9638 130.39694 146.33590999999998 127.91239 C 145.06543 126.7112 144.99862 126.57755 144.82134 124.88261 C 144.4151 120.99858 145.89132999999998 118.54158 149.32559999999998 117.38584 L 151.15383999999997 116.77059 L 152.04467999999997 118.09342 C 153.04525999999998 119.57919 155.31929999999997 121.19077999999999 157.47763999999998 121.94369999999999 C 158.58601 122.33035 159.66433999999998 122.42075999999999 163.08333 122.41372 C 167.14394 122.40572 167.41611 122.37062 169.75387999999998 121.56228 C 172.72514999999999 120.53489 175.22688999999997 119.28545 177.48937999999998 117.69894000000001 C 179.47544 116.30627000000001 182.74497 113.15839000000001 183.94463 111.48386 L 184.77916 110.31899000000001 L 184.85845999999998 111.95981000000002 C 184.95135999999997 113.88138000000002 184.32609 117.21194000000001 183.41583999999997 119.64431000000002 C 180.28427999999997 128.01245000000003 172.06858999999997 133.41921000000002 161.89268999999996 133.80872000000002 C 159.72717999999995 133.89162000000002 158.31602999999996 133.80572000000004 156.99789999999996 133.51193000000004 z" stroke-linecap="round" />
</g>
</svg>
